<?xml version="1.0" encoding="UTF-8"?>
<svg id="Layer_1" data-name="Layer 1" xmlns="http://www.w3.org/2000/svg" viewBox="0 0 341.95 512">
  <defs>
    <style>
      .cls-1 {
        fill: #fff;
      }
    </style>
  </defs>
  <path class="cls-1" d="m155.06,512c-6.99-.03-13.89-1.57-20.22-4.52-21.41-9.53-32.38-33.5-25.6-55.94l33.3-110.21h-78.46C28.73,341.38.04,312.76,0,277.41c0-6.31.92-12.58,2.74-18.62L67.26,45.46C75.33,18.36,100.33-.16,128.61,0h78.78c30.63.03,55.45,24.88,55.42,55.51,0,6.62-1.2,13.19-3.52,19.39l-35.9,95.77h54.55c35.35,0,64,28.65,64,64,0,12.81-3.84,25.33-11.03,35.93l-136.53,219.73c-8.58,13.43-23.38,21.59-39.32,21.67Zm-26.45-469.33c-9.41,0-17.71,6.14-20.44,15.15l-64.51,213.33c-3.42,11.28,2.95,23.19,14.23,26.6,2.01.61,4.09.92,6.19.92h107.2c11.78,0,21.33,9.55,21.33,21.33,0,2.1-.31,4.18-.92,6.19l-41.54,137.43c-.77,2.02.25,4.27,2.26,5.04.1.04.21.07.32.11,1.86,1.2,4.35.65,5.54-1.21.07-.11.14-.23.2-.35l136.53-219.73c4.87-6.61,5.52-15.43,1.66-22.68-3.57-7.06-10.82-11.49-18.73-11.46h-85.33c-11.78,0-21.34-9.54-21.35-21.32,0-2.56.46-5.1,1.36-7.5l46.72-124.59c2.46-6.63-.91-13.99-7.54-16.46-1.41-.52-2.9-.8-4.41-.8h-78.78Z"/>
</svg>