<?xml version="1.0" encoding="UTF-8"?>
<svg id="Layer_1" data-name="Layer 1" xmlns="http://www.w3.org/2000/svg" viewBox="0 0 384 512">
  <defs>
    <style>
      .cls-1 {
        fill: #fff;
      }
    </style>
  </defs>
  <path class="cls-1" d="m277.33,256h-42.67c-11.78,0-21.33-9.56-21.33-21.33s9.56-21.33,21.33-21.33h42.67c11.78,0,21.33,9.56,21.33,21.33s-9.56,21.33-21.33,21.33Zm21.33,85.33c0-11.78-9.56-21.33-21.33-21.33h-85.33c-11.78,0-21.33,9.56-21.33,21.33s9.56,21.33,21.33,21.33h85.33c11.78,0,21.33-9.56,21.33-21.33Zm85.33,64V149.33c0-58.82-47.85-106.67-106.67-106.67h-3.65C264.87,17.83,241.15,0,213.33,0h-42.67c-27.82,0-51.54,17.83-60.35,42.67h-3.65C47.85,42.67,0,90.52,0,149.33v256c0,58.82,47.85,106.67,106.67,106.67h170.67c58.82,0,106.67-47.85,106.67-106.67ZM128,85.33c11.78,0,21.33-9.56,21.33-21.33s9.58-21.33,21.33-21.33h42.67c11.75,0,21.33,9.58,21.33,21.33s9.56,21.33,21.33,21.33h21.33c35.29,0,64,28.71,64,64v256c0,35.29-28.71,64-64,64H106.67c-35.29,0-64-28.71-64-64V149.33c0-35.29,28.71-64,64-64h21.33Zm-21.33,234.67c-11.78,0-21.33,9.56-21.33,21.33s9.56,21.33,21.33,21.33,21.33-9.56,21.33-21.33-9.56-21.33-21.33-21.33Zm39.13-74.18l39.72-38.51c8.47-8.21,8.68-21.72.47-30.17-8.21-8.47-21.72-8.66-30.17-.47l-34.99,33.92-17.3-16.34c-8.55-8.09-22.06-7.72-30.17.87-8.09,8.58-7.7,22.08.87,30.17l21.5,20.29c6.7,6.72,15.64,10.41,25.13,10.41s18.43-3.69,24.9-10.18h.02Z"/>
</svg>