<?xml version="1.0" encoding="UTF-8"?>
<svg id="Layer_1" data-name="Layer 1" xmlns="http://www.w3.org/2000/svg" viewBox="0 0 512 512">
  <defs>
    <style>
      .cls-1 {
        fill: #fff;
      }
    </style>
  </defs>
  <path class="cls-1" d="m405.33,0H106.67C47.85,0,0,47.85,0,106.67v21.33c0,18.9,8.26,35.93,21.33,47.66v229.67c0,58.82,47.85,106.67,106.67,106.67h256c58.82,0,106.67-47.85,106.67-106.67v-229.67c13.08-11.73,21.33-28.74,21.33-47.66v-21.33c0-58.82-47.85-106.67-106.67-106.67ZM42.67,106.67c0-35.29,28.71-64,64-64h298.67c35.29,0,64,28.71,64,64v21.33c0,11.78-9.56,21.33-21.33,21.33H64c-11.75,0-21.33-9.56-21.33-21.33v-21.33Zm405.33,298.67c0,35.29-28.71,64-64,64H128c-35.29,0-64-28.71-64-64v-213.33h384v213.33Zm-313.71-70.19c-8.36-8.32-8.41-21.8-.11-30.17,8.32-8.38,21.78-8.43,30.19-.13l51.88,51.5c8.17,8.21,22.17,8.15,30.21.06l101.67-94.68c8.6-8.02,22.14-7.55,30.14,1.07,8.04,8.62,7.55,22.12-1.07,30.14l-101.12,94.17c-11.54,11.56-27.61,18.22-44.71,18.22s-33.17-6.66-45.27-18.75l-51.82-51.43h0Z"/>
</svg>