<?xml version="1.0" encoding="UTF-8"?>
<svg id="Layer_1" data-name="Layer 1" xmlns="http://www.w3.org/2000/svg" viewBox="0 0 512 512">
  <defs>
    <style>
      .cls-1 {
        fill: #fff;
      }
    </style>
  </defs>
  <path class="cls-1" d="m362.67,512c-82.47,0-149.33-66.86-149.33-149.33s66.86-149.33,149.33-149.33,149.33,66.86,149.33,149.33c-.09,82.44-66.9,149.24-149.33,149.33Zm0-256c-58.91,0-106.67,47.76-106.67,106.67s47.76,106.67,106.67,106.67,106.67-47.76,106.67-106.67c-.07-58.88-47.79-106.6-106.67-106.67Zm36.42,143.08c8.33-8.33,8.33-21.83,0-30.17l-15.08-15.08v-33.83c0-11.78-9.55-21.33-21.33-21.33s-21.33,9.55-21.33,21.33v42.67c0,5.66,2.25,11.08,6.25,15.08l21.33,21.33c8.33,8.33,21.83,8.33,30.17,0h0ZM42.67,490.67c.11-80.62,54.67-150.99,132.71-171.18,11.5-2.6,18.71-14.04,16.11-25.54-2.6-11.5-14.04-18.71-25.54-16.11C68.07,301.86-.56,389.88,0,490.67c0,11.78,9.55,21.33,21.33,21.33s21.33-9.55,21.33-21.33h0ZM180.78,234.67c-64.8,0-117.33-52.53-117.33-117.33S115.98,0,180.78,0s117.33,52.53,117.33,117.33c-.07,64.77-52.56,117.26-117.33,117.33Zm0-192c-41.24,0-74.67,33.43-74.67,74.67s33.43,74.67,74.67,74.67,74.67-33.43,74.67-74.67-33.43-74.67-74.67-74.67Z"/>
</svg>