<?xml version="1.0" encoding="UTF-8"?>
<svg id="Layer_1" data-name="Layer 1" xmlns="http://www.w3.org/2000/svg" viewBox="0 0 512 512.16">
  <defs>
    <style>
      .cls-1 {
        fill: #fff;
      }
    </style>
  </defs>
  <path class="cls-1" d="m192,512.16H21.33c-11.78,0-21.33-9.55-21.33-21.33s9.55-21.33,21.33-21.33h170.67c11.78,0,21.33,9.55,21.33,21.33s-9.55,21.33-21.33,21.33Z"/>
  <path class="cls-1" d="m149.33,426.83H21.33c-11.78,0-21.33-9.55-21.33-21.33s9.55-21.33,21.33-21.33h128c11.78,0,21.33,9.55,21.33,21.33s-9.55,21.33-21.33,21.33Z"/>
  <path class="cls-1" d="m106.67,341.49H21.33c-11.78,0-21.33-9.55-21.33-21.33s9.55-21.33,21.33-21.33h85.33c11.78,0,21.33,9.55,21.33,21.33s-9.55,21.33-21.33,21.33Z"/>
  <path class="cls-1" d="m277.33,511.2c-11.78.52-21.76-8.6-22.28-20.38-.52-11.78,8.6-21.76,20.38-22.28,117.33-10.74,203.74-114.55,193.01-231.88-10.74-117.33-114.55-203.74-231.88-193.01-102.5,9.38-183.69,90.6-193.02,193.11-1.06,11.73-11.43,20.39-23.17,19.33C8.64,255.01-.02,244.64,1.05,232.91h0C13.81,92.1,138.3-11.7,279.11,1.06c131.94,11.96,232.96,122.61,232.89,255.1.68,132.64-100.59,243.58-232.75,254.95-.64.06-1.3.09-1.92.09Z"/>
  <path class="cls-1" d="m256,128.16c-11.78,0-21.33,9.55-21.33,21.33v106.67c0,5.66,2.25,11.08,6.25,15.08l64,64c8.47,8.19,21.98,7.95,30.17-.52,7.99-8.27,7.99-21.37,0-29.64l-57.75-57.75v-97.83c0-11.78-9.55-21.33-21.33-21.33h0Z"/>
</svg>