<?xml version="1.0" encoding="UTF-8"?>
<svg id="Outline" xmlns="http://www.w3.org/2000/svg" viewBox="0 0 512 512">
  <defs>
    <style>
      .cls-1 {
        fill: #fff;
      }
    </style>
  </defs>
  <path class="cls-1" d="m256,0C114.62,0,0,114.62,0,256s114.62,256,256,256,256-114.62,256-256C511.85,114.68,397.32.15,256,0Zm213.33,256c.03,41.81-12.31,82.69-35.46,117.5l-25.43-25.45c-1.99-2-3.11-4.71-3.11-7.53v-20.52c0-35.35-28.65-64-64-64h-64c-11.78,0-21.33-9.55-21.33-21.33v-10.67c0-5.89,4.78-10.67,10.67-10.67,29.46,0,53.33-23.88,53.33-53.33v-21.33c0-5.89,4.78-10.67,10.67-10.67h29.42c14.13-.04,27.68-5.65,37.7-15.62l8.04-8.04c40.65,39.99,63.53,94.64,63.51,151.66Zm-425.62,20.54l67.37,67.37c11.98,12.05,28.28,18.81,45.27,18.75h56.98c11.78,0,21.33,9.55,21.33,21.33v84.25c-101.16-10.33-181.02-90.51-190.95-191.7Zm233.62,191.7v-84.25c0-35.35-28.65-64-64-64h-56.98c-5.66,0-11.1-2.24-15.1-6.25l-95.1-95.1C66.51,102.86,176.88,25.51,292.67,45.88c28.44,5,55.57,15.74,79.73,31.56l-4.78,4.78c-2.01,1.98-4.71,3.1-7.53,3.11h-29.42c-29.46,0-53.33,23.88-53.33,53.33v21.33c0,5.89-4.78,10.67-10.67,10.67-29.46,0-53.33,23.88-53.33,53.33v10.67c0,35.35,28.65,64,64,64h64c11.78,0,21.33,9.55,21.33,21.33v20.52c.04,14.13,5.65,27.68,15.62,37.7l28.52,28.52c-34.74,34.86-80.5,56.6-129.47,61.5Z"/>
</svg>