<svg id="Слой_1" data-name="Слой 1" xmlns="http://www.w3.org/2000/svg" viewBox="0 0 528.24 528.24"><defs><style>.cls-1{fill:#ab2524;}</style></defs><title>logo</title><path class="cls-1" d="M798.31,601.12c6.76,6.28,5.76,22,5.76,22V774.89c0,7.62-3.22,14.42-9.62,20.34s-14.64,8.89-24.7,8.89q-13.74,0-22.66-8.89c-6-5.92-8.92-12.72-8.92-20.34L739.44,719a267.12,267.12,0,0,1-196.06,85.14c-147.74,0-267.5-118.25-267.5-264.12s119.76-264.12,267.5-264.12c97.33,0,185.44,50.6,228.91,128.27,6,11.35-1.7,23.86-13.26,31.12-9.63,6.05-33.59,6-41.49-5-40.15-56-99.54-95.42-174.16-95.42-114.74,0-207.76,91.84-207.76,205.13s93,205.13,207.76,205.13c70.5,0,131.82-33.53,169.33-86.57l-89.93,1.36q-11.58,0-20.6-9.49t-9-24.4q0-13.56,9-22.37t20.6-8.81H774S791,594.31,798.31,601.12Z" transform="translate(-275.88 -275.88)"/></svg>