<?xml version="1.0" encoding="UTF-8"?>
<svg id="Layer_1" data-name="Layer 1" xmlns="http://www.w3.org/2000/svg" viewBox="0 0 512 512">
  <defs>
    <style>
      .cls-1 {
        fill: #fff;
      }
    </style>
  </defs>
  <path class="cls-1" d="m490.67,426.67c-11.78,0-21.33,9.55-21.33,21.33,0,7.34-14.55,21.33-37.33,21.33-12.96.46-25.44-4.94-33.98-14.7.83-1.36,1.75-2.67,2.73-3.93,34.79-36.49,58.19-82.32,67.33-131.9,5.59-30.81-11.93-61.13-41.41-71.68v-55.13c0-47.13-38.21-85.33-85.33-85.33v-21.33c0-47.13-38.21-85.33-85.33-85.33s-85.33,38.21-85.33,85.33v21.33c-47.13,0-85.33,38.21-85.33,85.33v54.85c-29.86,10.31-47.73,40.88-42.07,71.96,9.37,49.64,32.99,95.47,67.99,131.9,1.02,1.29,1.97,2.63,2.84,4.03-8.55,9.79-21.1,15.16-34.09,14.59-23.23,0-37.33-14.81-37.33-21.33,0-11.78-9.55-21.33-21.33-21.33S0,436.22,0,448c0,34.69,36.65,64,80,64,21.57.2,42.49-7.38,58.94-21.33,33.85,28.27,83.04,28.41,117.06.34,34.13,28.04,83.37,27.9,117.33-.34,16.35,13.88,37.13,21.45,58.58,21.33,43.43,0,80.09-29.31,80.09-64,0-11.78-9.55-21.33-21.33-21.33ZM213.33,85.33c0-23.56,19.1-42.67,42.67-42.67s42.67,19.1,42.67,42.67v21.33h-85.33v-21.33Zm-42.67,64h170.67c23.56,0,42.67,19.1,42.67,42.67v40.96l-107.78-35.37c-13.1-4.31-27.24-4.31-40.34,0l-107.88,35.22v-40.81c0-23.56,19.1-42.67,42.67-42.67Zm26.67,320c-14.5.79-28.36-6.08-36.5-18.11-4.44-10.65-10.55-20.53-18.09-29.27-29.41-30.45-49.35-68.78-57.41-110.34-2.04-10.57,3.97-21.03,14.12-24.6l135.21-44.18v205.16c0,7.34-14.55,21.33-37.33,21.33Zm117.33,0c-23.23,0-37.33-14.81-37.33-21.33v-205.14l134.51,44.14c10.19,3.56,16.23,14.04,14.21,24.64-7.82,41.5-27.56,79.83-56.79,110.31-7.59,8.75-13.7,18.68-18.09,29.4-8.14,12.01-22.01,18.84-36.5,17.98Z"/>
</svg>