<svg id="Flat" xmlns="http://www.w3.org/2000/svg" viewBox="0 0 208.56 188.15"><defs><style>.cls-1{fill:#fff;}</style></defs><path class="cls-1" d="M228.11,36.84a12,12,0,0,0-12.22-2.08L31.33,107.27a12,12,0,0,0,2,22.93l50.09,10v61.83a11.82,11.82,0,0,0,7.41,11.09,12.1,12.1,0,0,0,4.67.94,11.84,11.84,0,0,0,8.41-3.54l28.59-28.6,42.2,37.13a11.88,11.88,0,0,0,7.89,3,12.06,12.06,0,0,0,3.72-.59,11.88,11.88,0,0,0,8-8.74L232,48.61A11.94,11.94,0,0,0,228.11,36.84Zm-196.37,82a3.87,3.87,0,0,1,2.52-4.08L203.43,48.25,86.53,132.68,34.94,122.36A3.86,3.86,0,0,1,31.74,118.79Zm66.55,86.09a4,4,0,0,1-6.83-2.83V145.79l35.07,30.86ZM224.18,46.82,186.56,211a4,4,0,0,1-6.54,2.11L93.87,137.25,223.53,43.61A3.8,3.8,0,0,1,224.18,46.82Z" transform="translate(-23.72 -33.93)"/></svg>