<svg id="Слой_1" data-name="Слой 1" xmlns="http://www.w3.org/2000/svg" viewBox="0 0 887.01 1080"><path d="M308.63,925.7c-20.32,0-37.92.06-55.52,0-88.58-.38-156.46-68.05-156.52-156.53q-.2-306.06,0-612.12c0-89.13,68-156.9,157.26-156.95Q540-.09,826.08.09C915.53.14,983.33,67.71,983.4,157q.2,306.06,0,612.12c-.07,88.45-68,156.22-156.47,156.6-17.6.07-35.21,0-55.28,0,3.64,5,6,8.44,8.55,11.79,19.48,26,39.09,52,58.46,78.1,14.78,19.93,12.37,43.07-5.59,56.58s-41.23,9.29-55.94-10.28q-47.77-63.51-95.2-127.3c-4.73-6.39-9.63-9.13-17.84-9.09q-124.08.5-248.16,0c-8.22,0-13.1,2.73-17.82,9.1-31.79,42.9-63.92,85.55-96,128.27-10.07,13.44-23.49,19.59-40,16.12-15.93-3.36-26-13.72-29.69-29.73-2.92-12.68,1.14-23.56,8.81-33.7C263.28,986.48,285,957.22,308.63,925.7Zm-135-385.21c0,76,0,150.69,0,225.36,0,50.46,32.32,82.71,82.89,82.72q283.07,0,566.15,0c51.42,0,83.57-32,83.61-83.22q.09-106,0-212.05V540.49Zm1.55-348.41H906.29c0-13.6.26-26.41,0-39.2-1-42.09-34.28-75.53-76.56-75.58q-289.7-.39-579.37,0c-37.35,0-68.55,25.58-74.65,62.54C172.91,156.53,175.2,174.08,175.2,192.08Zm325.69,78.77H174.6V462.26H500.89Zm404.59,191.5V271H579.19V462.35Z" transform="translate(-96.5 0)"/><path d="M327.71,771.32c-31.44-.1-57.39-26-57.57-57.37a58.06,58.06,0,0,1,58-58.18c31.35,0,57.5,26,57.54,57.36C385.73,745.27,359.67,771.43,327.71,771.32Z" transform="translate(-96.5 0)"/><path d="M752.21,771.32c-31.48,0-57.57-25.65-57.89-57.05A58,58,0,0,1,752,655.78c31.37-.21,57.66,25.7,57.86,57C810.06,745,784.15,771.27,752.21,771.32Z" transform="translate(-96.5 0)"/></svg>