<svg id="Слой_2" data-name="Слой 2" xmlns="http://www.w3.org/2000/svg" viewBox="0 0 1108.25 1080"><defs><style>.cls-1{fill:none;}</style></defs><rect y="217" width="916.17" height="29.94"/><rect x="798.93" y="346.24" width="313.24" height="32.93" transform="translate(1144.46 1371.6) rotate(-120)"/><rect x="1041.01" y="485.76" width="31.24" height="260.24"/><rect x="25.25" y="719.41" width="1047" height="26.59"/><circle cx="840.98" cy="785.71" r="46.29"/><rect x="25.25" y="820.87" width="1061.88" height="27.13"/><rect x="941.82" y="448.22" width="25.4" height="184.96" transform="translate(439.07 1495.22) rotate(-90)"/><rect x="882.5" y="294.5" width="33" height="74" transform="translate(592.75 1230.5) rotate(-90)"/><rect class="cls-1" x="28.25" width="1080" height="1080"/><rect x="758.45" y="419.03" width="238" height="29.94" transform="translate(468.7 1311.45) rotate(-90)"/><rect x="500.24" y="417.81" width="234.08" height="35.22" transform="translate(207.11 1052.69) rotate(-90)"/><rect x="694.91" y="417.22" width="235.26" height="35.22" transform="translate(402.96 1247.37) rotate(-90)"/><rect x="599.11" y="517.78" width="224.67" height="35.22" transform="translate(1448.13 1070.78) rotate(180)"/><rect x="642" y="317.81" width="207.03" height="35.22"/><rect x="208.06" y="418.2" width="234.08" height="35.22" transform="translate(-85.46 760.9) rotate(-90)"/><rect x="402.73" y="417.61" width="235.26" height="35.22" transform="translate(110.39 955.58) rotate(-90)"/><rect x="306.93" y="518.17" width="224.67" height="35.22" transform="translate(863.77 1071.56) rotate(180)"/><rect x="349.82" y="318.2" width="207.03" height="35.22"/><rect x="-83.94" y="417.2" width="234.08" height="35.22" transform="translate(-376.46 467.9) rotate(-90)"/><rect x="110.73" y="416.61" width="235.26" height="35.22" transform="translate(-180.61 662.58) rotate(-90)"/><rect x="14.93" y="517.17" width="224.67" height="35.22" transform="translate(279.77 1069.56) rotate(180)"/><rect x="57.82" y="317.2" width="207.03" height="35.22"/><circle cx="719.7" cy="785.49" r="46.29"/><circle cx="304.34" cy="779.6" r="46.29"/><circle cx="183.06" cy="779.38" r="46.29"/></svg>