<svg id="Слой_1" data-name="Слой 1" xmlns="http://www.w3.org/2000/svg" viewBox="0 0 1083.21 1080"><defs><style>.cls-1{fill:none;}</style></defs><path d="M1032,662.38l-19-5.11c4-29.54,7.87-58,11.87-87.49H824.26c-5.57,56.69-11.13,113.25-16.47,167.61l143.66,47.16c15.18-27,32-56.9,49.24-87.49l18.91,7.27c-5.44,12-9.86,23.5-15.63,34.27C937.42,862.79,834.36,934.9,694.5,952.29c-69.69,8.67-137.08-3.08-201.25-31.74-7.95-3.55-14.06-3.72-22,.15-45.8,22.32-93.11,40.09-144.41,44.87-22.34,2.08-44.37.53-65.62-6.94-40-14-64.32-49.4-66.83-95.46-2-36.68,5.62-71.71,16.94-106.21,1.4-4.25,2.81-8.49,4.89-14.78H134.44V719.05c17.49,0,34.67.09,51.85,0,12.76-.09,28,3.77,37.54-1.89,8.91-5.28,11.78-20.76,17.24-31.79,2-4,3.72-8.06,6.32-13.73H71.54v-23.1H84.21q83.48,0,166.94,0c10.87,0,16.54-6.41,14.65-17.06-12.12-68.44-7-135.47,16-201.11.48-1.36.5-2.89,1-6.05H210.55v-22.9c23.33,0,46.15-.48,68.94.22,9.87.3,15.84-1.87,19.54-11.94,3.79-10.33,10-19.79,16-31.28H142.89V335.64H156c54.89,0,109.79.18,164.68-.3,5,0,11.85-3,14.78-6.93,45.1-60.1,102.15-104.5,171.73-132.83a12.29,12.29,0,0,0,6.12-4.92H372.2V168.07c4.85,0,8.91,0,13,0,89.11-.16,178.23-.77,267.33-.18,23.55.16,47.13,3.59,70.59,6.42,8.52,1,15.6.49,23.45-3.7,42.88-22.86,87.36-41.88,135.28-51.52,27.41-5.52,55-8.19,82.76-1.74,47.31,11,76.44,45,80.69,93.49,2.53,28.87-1.21,57-8.34,84.82-.9,3.54-1.74,7.1-3.08,12.55l38.33-16.92,9.44,20.15-37,16.84c-11.91,5.42-23.84,10.81-36.85,16.7l-33.34-73.24,20.22-9.39,17.59,37.26c9.41-31.61,14-61.56,9.59-92.09-6.61-45.18-36.53-69.74-85.81-71.09-39.41-1.07-76.57,9.59-112.81,23.73-18.06,7-35.65,15.31-55.3,23.83C991.56,255.71,1084.78,485.63,1032,662.38ZM780,379.5c-79.74,12.26-159.09,12.53-239.18,2.36a830.4,830.4,0,0,0-17.21,163.78H798.32C800.86,511.63,789.48,408.15,780,379.5Zm-255.67,190c-3.36,37.55,8.11,146.87,17.08,163.83a864.39,864.39,0,0,1,241,2.52,859.4,859.4,0,0,0,16.53-166.35Zm-26.13.16a3.41,3.41,0,0,0-1.83-.46c-51.06-.07-102.13-.23-153.19.16-3.52,0-8.16,3.4-10.3,6.55-12.86,18.93-25.51,38-37.33,57.61-2.67,4.43-3.71,11.63-2.18,16.51,7.17,22.85,13.76,46.15,23.89,67.71,11.35,24.14,26.29,46.59,39.82,70,52.25-26.8,105.23-40.91,157.18-50.44C508.79,680.81,503.55,626,498.15,569.67Zm326.1-23.9H1022c5.53-58.29-38-174.91-77.21-212.24L806.43,377.72Q815.18,460.15,824.25,545.77ZM274.06,668.9c-9.63,20.39-18.7,38-26.39,56.2C229.12,769,214.32,813.76,217,862.41c2.47,45,28.06,74.5,72.55,79.32,20.2,2.19,41.3.57,61.48-2.6,36.86-5.79,71.25-19.91,105.91-36.5C366.43,848.16,306,771.5,274.06,668.9Zm269.73,86.94c4.66,16.21,8.16,30.78,13.07,44.87,6,17.33,11.59,35.14,20.33,51.12,10.89,19.93,22.71,40.1,37.86,56.77,29,31.84,62.18,31.61,91.9.71,40.24-41.84,55.66-95.61,70.73-151.16A832.16,832.16,0,0,0,543.79,755.84Zm2.94-396.13a816.37,816.37,0,0,0,229.13-2.52c-14-51.34-30.05-100.12-65.29-141-16.93,11.16-33.42,21-48.76,32.35-31.08,23-61.19,47.37-92.39,70.23C555.62,328.86,548.34,341.47,546.73,359.71ZM361,332.46C312.86,394,286.1,465.3,282.3,546.51c12.62,0,23.53.77,34.26-.34,5.14-.53,11.63-3.35,14.59-7.32,42.73-57.33,89.87-110.76,140.6-161.08a64,64,0,0,0,4.53-5.41ZM602.45,928.83A233.87,233.87,0,0,1,550.52,848c-11.19-28.87-20.48-58.48-30.66-87.9-44.26,4.83-125.1,30.18-145.41,46C435,873.33,509.66,914.11,602.45,928.83ZM377.88,312.48c37.69,18.28,75.61,29.77,114.63,37.71,3.55.72,8.51-1.45,11.73-3.79,19.9-14.44,34.85-32.47,40.1-57.35,1-4.69,3.46-9.09,5.38-13.58,12.42-29.06,27.94-56.23,49.19-80.31C511.73,207.9,438.75,246.72,377.88,312.48ZM800.09,762.22c-15.57,58.81-34,114.92-76.28,163.18,84.73-17.73,153-57.19,208.87-120.33C890.25,784,846.56,771,800.09,762.22ZM515.91,375.82c-5.65,2.17-12.2,2.82-15.95,6.4a1314.6,1314.6,0,0,0-139.79,156c-1.66,2.19-2.8,4.76-4.45,7.6H498.16C504,489.61,509.82,434.18,515.91,375.82Zm411.31-64c-51-55.1-111.65-91.87-183.37-110.11-3.67-.93-8,.89-14.23,1.73,36.79,45.24,54.27,96.5,68.53,148.83C824.84,351.38,901.2,327.54,927.22,311.81ZM569.15,288,691,200.19c-24.33-15.57-47.83-13-71.18,8.2C595.9,230.09,581.5,257.94,569.15,288ZM281.9,569.65c.87,11.75,1.7,22.81,2.52,33.86l2.32.27c7.2-11,14.41-22,22.34-34.13Z" transform="translate(1.61)"/><path d="M99,357.62H55.12V336.48H99Z" transform="translate(1.61)"/><path d="M98.89,740.83H63V719.7H98.89Z" transform="translate(1.61)"/><path d="M34.49,670.47H-1.61V649.26h36.1Z" transform="translate(1.61)"/><path d="M342.31,170v21h-30V170Z" transform="translate(1.61)"/><rect class="cls-1" x="1.61" width="1080" height="1080"/></svg>