<svg id="Слой_1" data-name="Слой 1" xmlns="http://www.w3.org/2000/svg" viewBox="0 0 1080 1080"><defs><style>.cls-1{fill:none;}</style></defs><path d="M1080,784.68a10.33,10.33,0,0,0-1.82,2.38c-10.58,28.66-28.17,41-59.08,41q-218.23,0-436.45,0c-37.6,0-75.21.29-112.8-.21-9.24-.13-15.54,2.85-22,9.31q-88,88.67-176.62,176.73c-14.63,14.56-31.11,26.32-52.31,29.51-12.43,1.87-27.69-5.5-31.47-17.38s-7.13-24.43-7.33-36.74c-.82-49.18-.34-98.39-.35-147.59V828.06H167.39c-32.33,0-64.72-1.19-97,.32C36.1,830,11.89,817.92,0,784.68V80.12c9.88-27.89,28-44.31,59.16-44.3Q540,36,1020.84,36a73.24,73.24,0,0,1,14.66,1.12c23.86,4.92,36.88,21.24,44.5,43.05ZM543.17,71.85q-239.41,0-478.83,0c-19.58,0-24.56,4.84-24.56,24q0,335.92,0,671.86c0,19.52,4.62,24.16,24.28,24.19,44,.05,87.89,0,131.84,0,18.68,0,23.58,5.11,23.59,24,0,55.9-.19,111.8.27,167.7.06,6.78,1.65,16.86,6.09,19.57,7.86,4.79,13.63-4.29,18.76-9.69q91.18-95.94,182-192.24c6.28-6.67,12.48-9.56,21.77-9.55q283.71.4,567.42.2c24.56,0,28.28-3.68,28.28-27.8q0-332.23,0-664.47c0-23.66-4.07-27.8-27.34-27.8Z"/><path d="M499.21,572.07c-14.26-.46-31.26-7.48-45-21-28.87-28.27-57.35-56.94-85.79-85.63-8.86-8.93-9.61-17.49-3.23-25.32s18.07-9.3,27.62-3.12a45.07,45.07,0,0,1,7.17,6.16Q444.51,488,489,532.92c6.89,6.94,14.93,9.86,23.69,4.4,9.41-5.86,19.37-11.56,27.06-19.32,61.81-62.41,123.14-125.29,184.63-188a19.32,19.32,0,0,1,27.34-.25c8.83,8.81,9.56,25,.91,33.34-22.8,21.91-45.84,43.56-68.81,65.3q-63.54,60.14-127.05,120.3C542,562.75,525.43,572.24,499.21,572.07Z"/><rect class="cls-1" width="1080" height="1080"/></svg>