<svg id="Слой_1" data-name="Слой 1" xmlns="http://www.w3.org/2000/svg" viewBox="0 0 1080 1080"><defs><style>.cls-1{fill:none;}</style></defs><path d="M548.63,584.32a32.16,32.16,0,0,1,1.3,3.92h2.59c4.5-.24,9-.08,13.53-.12a2.34,2.34,0,0,1,1.58-.44c3.3.33,6.59.07,9.89.19a5.14,5.14,0,0,1,1.08.24,13.76,13.76,0,0,1,1.7,0,8.62,8.62,0,0,1,1.58-.09h.19l1.28.06a3,3,0,0,1,.79.17h0a3,3,0,0,1,1.31-.3h.16a2.48,2.48,0,0,1,1.17.3h453.91V538.67H548.63Z" transform="translate(0)"/><path d="M551.78,539a30.89,30.89,0,0,1-3.91,1.29v2.6c.24,4.5.07,9,.11,13.53a2.33,2.33,0,0,1,.44,1.58c-.32,3.3-.06,6.58-.19,9.88A4.78,4.78,0,0,1,548,569c0,.57,0,1.13,0,1.7a8.72,8.72,0,0,1,.09,1.58v.08a.49.49,0,0,1,0,.12c0,.42,0,.84-.06,1.28a3.08,3.08,0,0,1-.16.79h0a3.11,3.11,0,0,1,.29,1.31V576a2.53,2.53,0,0,1-.29,1.17v453.9h49.56V539Z" transform="translate(0)"/><path d="M995.8,588a32.57,32.57,0,0,1-3.91,1.29v2.59c.24,4.51.07,9,.12,13.54a2.37,2.37,0,0,1,.43,1.58c-.32,3.3-.06,6.58-.19,9.88a4.78,4.78,0,0,1-.23,1.08c0,.57,0,1.13,0,1.7a8.67,8.67,0,0,1,.09,1.58v.08a.49.49,0,0,1,0,.12c0,.41,0,.84-.06,1.28a2.92,2.92,0,0,1-.16.78h0a3,3,0,0,1,.29,1.31v.15a2.54,2.54,0,0,1-.29,1.18V1080h49.56V588Z" transform="translate(0)"/><path d="M548.63,1075a32,32,0,0,1,1.3,3.91h2.59c4.5-.24,9-.08,13.53-.12a2.4,2.4,0,0,1,1.58-.44c3.3.33,6.59.07,9.89.19a5.14,5.14,0,0,1,1.08.24,16.05,16.05,0,0,1,1.7,0,8.62,8.62,0,0,1,1.58-.09h.19l1.28.06a3,3,0,0,1,.79.17h0a3,3,0,0,1,1.31-.3h.16a2.48,2.48,0,0,1,1.17.3h453.91v-49.56H548.63Z" transform="translate(0)"/><path d="M42.46,538.47a30.37,30.37,0,0,1-3.91,1.29v2.6c.24,4.5.07,9,.12,13.53a2.44,2.44,0,0,1,.44,1.58c-.33,3.3-.07,6.58-.2,9.88a4.78,4.78,0,0,1-.23,1.08c0,.57,0,1.14,0,1.7a8.72,8.72,0,0,1,.09,1.58v.2c0,.42,0,.84-.06,1.28a3.1,3.1,0,0,1-.17.79h0a3,3,0,0,1,.3,1.31v.16a2.54,2.54,0,0,1-.3,1.17v453.9H88.11v-492Z" transform="translate(0)"/><path d="M486.48,585.53a32,32,0,0,1-3.91,1.3v2.59c.24,4.5.07,9,.12,13.53a2.4,2.4,0,0,1,.44,1.58c-.33,3.3-.07,6.59-.2,9.89a5,5,0,0,1-.23,1.08,16.05,16.05,0,0,1,0,1.7,8.56,8.56,0,0,1,.09,1.57v.2c0,.42,0,.84-.06,1.28a3.1,3.1,0,0,1-.17.79h0a3,3,0,0,1,.3,1.31v.16a2.48,2.48,0,0,1-.3,1.17v453.9h49.56v-492Z" transform="translate(0)"/><path d="M39.31,583.78a29.86,29.86,0,0,1,1.3,3.91H43.2c4.5-.24,9-.08,13.53-.12a2.37,2.37,0,0,1,1.59-.44c3.3.33,6.58.07,9.88.19a5.14,5.14,0,0,1,1.08.24,13.76,13.76,0,0,1,1.7,0,8.62,8.62,0,0,1,1.58-.09h.2l1.28.06a2.94,2.94,0,0,1,.78.17h0a3,3,0,0,1,1.32-.3h.15a2.48,2.48,0,0,1,1.17.3H531.37V538.12H39.31Z" transform="translate(0)"/><path d="M39.31,1074.44a30.37,30.37,0,0,1,1.3,3.91H43.2c4.5-.24,9-.07,13.53-.12a2.42,2.42,0,0,1,1.59-.44c3.3.33,6.58.07,9.88.2a5,5,0,0,1,1.08.23,16.05,16.05,0,0,1,1.7,0,8.62,8.62,0,0,1,1.58-.09h.2l1.28.06a2.94,2.94,0,0,1,.78.17h0a3,3,0,0,1,1.32-.3h.15a2.48,2.48,0,0,1,1.17.3H531.37v-49.56H39.31Z" transform="translate(0)"/><path d="M379.68,554.86a10.51,10.51,0,0,1-2,1.29v2.6c.13,4.51,0,9,.06,13.54a4.2,4.2,0,0,1,.22,1.59c-.16,3.3,0,6.58-.1,9.88a9.63,9.63,0,0,1-.12,1.09c0,.56,0,1.13,0,1.69s.06,1.09.05,1.59v.19c0,.41,0,.84,0,1.28a3.87,3.87,0,0,1-.08.77h0a5.33,5.33,0,0,1,.15,1.3v.15a4.54,4.54,0,0,1-.15,1.18v453.91h25V554.86Z" transform="translate(0)"/><path d="M275.2,567.92a10.76,10.76,0,0,1-2,1.29v2.59c.12,4.52,0,9.05,0,13.55a4,4,0,0,1,.22,1.59c-.16,3.3,0,6.58-.09,9.88a10,10,0,0,1-.13,1.09c0,.55,0,1.13,0,1.69s.06,1.08.05,1.59v.19c0,.41,0,.83,0,1.28a4.9,4.9,0,0,1-.07.77h0a5.87,5.87,0,0,1,.15,1.3v.15a5.08,5.08,0,0,1-.15,1.18V1060h25V567.92Z" transform="translate(0)"/><path d="M170,567.92a10.76,10.76,0,0,1-2,1.29v2.59c.12,4.52,0,9.05.05,13.55a4,4,0,0,1,.22,1.59c-.16,3.3,0,6.58-.1,9.88a9.63,9.63,0,0,1-.12,1.09c0,.55,0,1.13,0,1.69s.06,1.08.05,1.59v.19c0,.41,0,.83,0,1.28a4.9,4.9,0,0,1-.07.77h0a5.87,5.87,0,0,1,.15,1.3v.15a5.08,5.08,0,0,1-.15,1.18V1060h25V567.92Z" transform="translate(0)"/><path d="M490,580a26,26,0,0,1-3.91-1.63l-2.31,2.3c-3.84,4.15-8,8-12,12a3.42,3.42,0,0,1-1.1,1.71c-3.16,2.69-5.9,5.78-8.93,8.61a7.08,7.08,0,0,1-1.13.79c-.48.52-1,1-1.51,1.51a11.91,11.91,0,0,1-1.34,1.46l-.07.07-.11.11c-.37.35-.77.71-1.18,1.08a4.21,4.21,0,0,1-.82.58h0a4.43,4.43,0,0,1-1,1.37l-.14.14a3.79,3.79,0,0,1-1.25.83L49,1012.58l34.93,35.17L522.13,612.43Z" transform="translate(0)"/><path d="M1006.52,574.38a28.21,28.21,0,0,1-3.91-1.63L1000.3,575c-3.84,4.16-8,8.06-12,12.06a3.47,3.47,0,0,1-1.1,1.71c-3.16,2.69-5.9,5.78-8.93,8.61a8.67,8.67,0,0,1-1.13.79c-.48.52-1,1-1.51,1.51a11.91,11.91,0,0,1-1.34,1.46l-.07.07-.11.1c-.37.36-.77.72-1.18,1.09a4.68,4.68,0,0,1-.82.58h0a4.68,4.68,0,0,1-1,1.37l-.14.14a3.62,3.62,0,0,1-1.25.82L565.55,1006.92l34.93,35.16L1038.7,606.77Z" transform="translate(0)"/><path d="M889,554.86a10.51,10.51,0,0,1-2,1.29v2.6c.12,4.51,0,9,.06,13.54a4,4,0,0,1,.21,1.59c-.16,3.3,0,6.58-.09,9.88,0,.26-.06.66-.12,1.09s0,1.13,0,1.69,0,1.09,0,1.59v.19c0,.41,0,.84,0,1.28a3.87,3.87,0,0,1-.08.77h0a5.87,5.87,0,0,1,.15,1.3v.15A5,5,0,0,1,887,593v453.91h25V554.86Z" transform="translate(0)"/><path d="M784.52,567.92a10.76,10.76,0,0,1-2,1.29v2.59c.12,4.52,0,9.05.05,13.55a4,4,0,0,1,.22,1.59c-.16,3.3,0,6.58-.1,9.88a9.63,9.63,0,0,1-.12,1.09c0,.55,0,1.13,0,1.69s.06,1.08,0,1.59v.19c0,.41,0,.83,0,1.28a4.9,4.9,0,0,1-.07.77h0a5.87,5.87,0,0,1,.15,1.3v.15a5.08,5.08,0,0,1-.15,1.18V1060h25V567.92Z" transform="translate(0)"/><path d="M679.27,567.92a10.51,10.51,0,0,1-2,1.29v2.59c.13,4.52,0,9.05.06,13.55a4.2,4.2,0,0,1,.22,1.59c-.16,3.3,0,6.58-.1,9.88a9.63,9.63,0,0,1-.12,1.09c0,.55,0,1.13,0,1.69s.06,1.08,0,1.59v.19c0,.41,0,.83,0,1.28a3.94,3.94,0,0,1-.08.77h0a5.33,5.33,0,0,1,.15,1.3v.15a4.6,4.6,0,0,1-.15,1.18V1060h25V567.92Z" transform="translate(0)"/><path d="M346.56.34a30.89,30.89,0,0,1-3.91,1.3V4.23c.24,4.5.07,9,.12,13.53a2.42,2.42,0,0,1,.43,1.59c-.32,3.3-.06,6.58-.19,9.88a5,5,0,0,1-.23,1.08c0,.56,0,1.13,0,1.7a8.62,8.62,0,0,1,.09,1.58v.08a.49.49,0,0,1,0,.12c0,.41,0,.83-.06,1.28a2.92,2.92,0,0,1-.16.78h0a3,3,0,0,1,.29,1.31v.15a2.47,2.47,0,0,1-.29,1.17V492.4h49.56V.34Z" transform="translate(0)"/><path d="M790.58,47.41a30.89,30.89,0,0,1-3.91,1.29v2.59c.24,4.51.07,9.05.12,13.54a2.37,2.37,0,0,1,.43,1.58c-.32,3.3-.06,6.58-.19,9.88a4.78,4.78,0,0,1-.23,1.08c0,.57,0,1.13,0,1.7a8.72,8.72,0,0,1,.09,1.58v.08a.49.49,0,0,1,0,.12c0,.41,0,.84-.06,1.28a2.92,2.92,0,0,1-.16.78h0a3,3,0,0,1,.29,1.31v.15a2.54,2.54,0,0,1-.29,1.18v453.9h49.56V47.41Z" transform="translate(0)"/><path d="M343.41,45.65a30.52,30.52,0,0,1,1.3,3.92h2.59c4.5-.25,9-.08,13.53-.12a2.35,2.35,0,0,1,1.59-.44c3.29.32,6.58.06,9.88.19a5,5,0,0,1,1.08.23,16.07,16.07,0,0,1,1.7,0,7.85,7.85,0,0,1,1.58-.1h.2l1.27.06a2.66,2.66,0,0,1,.79.17h0a3,3,0,0,1,1.31-.3h.16a2.37,2.37,0,0,1,1.17.3H835.47V0H343.41Z" transform="translate(0)"/><path d="M343.41,536.31a30.52,30.52,0,0,1,1.3,3.92h2.59c4.5-.25,9-.08,13.53-.12a2.35,2.35,0,0,1,1.59-.44c3.29.33,6.58.06,9.88.19a5.14,5.14,0,0,1,1.08.24,13.76,13.76,0,0,1,1.7,0,8.66,8.66,0,0,1,1.58-.1h.2l1.27.06a3,3,0,0,1,.79.17h0a3,3,0,0,1,1.31-.3h.16a2.48,2.48,0,0,1,1.17.3H835.47V490.66H343.41Z" transform="translate(0)"/><path d="M683.78,16.74a11.59,11.59,0,0,1-2,1.29v2.59c.12,4.52,0,9.05.06,13.55a3.94,3.94,0,0,1,.21,1.58c-.16,3.3,0,6.59-.09,9.89,0,.26-.06.65-.12,1.08s0,1.14,0,1.7,0,1.08,0,1.58v.19c0,.41,0,.84,0,1.29a3.77,3.77,0,0,1-.08.76h0a6,6,0,0,1,.15,1.31v.15a4.93,4.93,0,0,1-.15,1.17V508.78h25v-492Z" transform="translate(0)"/><path d="M579.3,29.8a11.92,11.92,0,0,1-2,1.29v2.59c.12,4.52,0,9,0,13.54a4,4,0,0,1,.22,1.59c-.16,3.3,0,6.59-.1,9.89a9.5,9.5,0,0,1-.12,1.08c0,.56,0,1.14,0,1.7s.06,1.08,0,1.58v.19q0,.61,0,1.29a4.67,4.67,0,0,1-.07.76h0a5.89,5.89,0,0,1,.15,1.31v.15a4.93,4.93,0,0,1-.15,1.17V521.84h25V29.8Z" transform="translate(0)"/><path d="M474.05,29.8a11.59,11.59,0,0,1-2,1.29v2.59c.13,4.52,0,9,.06,13.54a4.2,4.2,0,0,1,.22,1.59c-.16,3.3,0,6.59-.1,9.89a9.5,9.5,0,0,1-.12,1.08c0,.56,0,1.14,0,1.7s.06,1.08.05,1.58v.19q0,.61,0,1.29a3.77,3.77,0,0,1-.08.76h0a5.36,5.36,0,0,1,.15,1.31v.15a4.47,4.47,0,0,1-.15,1.17V521.84h25V29.8Z" transform="translate(0)"/><path d="M794.05,41.92a28.21,28.21,0,0,1-3.91-1.63l-2.31,2.29c-3.84,4.16-8,8.06-12,12.06a3.47,3.47,0,0,1-1.1,1.71c-3.17,2.69-5.91,5.78-8.93,8.61a9.43,9.43,0,0,1-1.13.79c-.48.52-1,1-1.51,1.5a13.8,13.8,0,0,1-1.34,1.47l-.07.07-.11.1L760.49,70a4.15,4.15,0,0,1-.82.57h0a4.68,4.68,0,0,1-1,1.37l-.14.14a3.62,3.62,0,0,1-1.25.82L353.07,474.46,388,509.62,826.22,74.31Z" transform="translate(0)"/><rect class="cls-1" width="1080" height="1080"/></svg>