<svg id="Слой_1" data-name="Слой 1" xmlns="http://www.w3.org/2000/svg" viewBox="0 0 1079.72 1080"><path d="M.16,539.42C1.26,241,243.88-1.18,540.57,0,839.08,1.2,1081,243.65,1079.87,540.53,1078.76,839,836.13,1081.2,539.46,1080,241,1078.78-.93,836.26.16,539.42ZM540.9,98.32C297.37,97.65,99.11,295.15,98.43,539.08c-.67,243.54,196.83,441.9,440.7,442.6,243.48.69,441.77-196.84,442.47-440.81C982.31,297.29,784.84,99,540.9,98.32Z" transform="translate(-0.16 0)"/><path d="M584.72,386c0,38.69.2,77.38-.17,116.06-.07,7.33,2.19,11.16,8.8,14.42q72.27,35.63,144.17,72c19.41,9.79,29.45,27.27,27.17,45.82-4,32.47-36.17,49.85-66.1,35.18-38.47-18.85-76.66-38.25-115-57.42q-31.1-15.54-62.18-31.1c-17.29-8.7-26.36-22.63-26.36-42.16q0-134,.07-268c.05-23.78,15.8-42.3,37.47-45.35,23.23-3.27,44.23,9.84,50.32,32,1.55,5.65,1.68,11.81,1.71,17.74C584.79,312.11,584.72,349,584.72,386Z" transform="translate(-0.16 0)"/></svg>