<svg id="Слой_1" data-name="Слой 1" xmlns="http://www.w3.org/2000/svg" viewBox="0 0 1076.84 1076.84"><path d="M789.76,0c6,1.68,12,3.17,17.94,5.08C848.77,18.36,877.38,55.62,877.62,99c.55,101.29.3,202.58.14,303.88,0,19.71-15.14,34.55-33.72,34.3s-32.93-15.14-32.95-35.12q-.2-147.21-.07-294.41c0-28-12.48-40.62-40.15-40.58-83.06.11-166.12.41-249.18.39q-205.55,0-411.1-.4c-28,0-40.36,12.34-40.36,40.33q0,330.15,0,660.32c0,27.67,12.62,40.14,40.6,40.14l389.05,0a98.78,98.78,0,0,1,11.55.24c17.19,2,30.22,16.88,29.86,33.8S527.51,873,510.15,874.55c-3.48.31-7,.14-10.51.14h-388c-57.41,0-94-29.33-106.88-85.48a9.67,9.67,0,0,0-1.61-2.61V88.33a36.84,36.84,0,0,0,2.11-5.69c6.21-31.3,23.2-55,51.28-69.92C67.4,7,79.8,4.15,91.49,0Z" transform="translate(-3.16)"/><path d="M838.13,1076.84c-37.11-13.26-72.28-30.24-103.08-55.17-80.41-65.09-122.57-149.52-125.66-252.85-1.26-42-.16-84.08-.31-126.12-.06-16,6.86-27.29,21.21-34.44q98.19-48.9,196.24-98.11c12.33-6.21,23.86-6.09,36.08.05q97,48.8,194.33,97.1c11.51,5.68,18.58,14.3,23.06,25.76V786.6c-.69,3.35-1.64,6.67-2,10.06Q1056.4,976,896.21,1059.5c-12.62,6.6-26.08,11.6-39.15,17.34Zm174.8-343.09c0-27.3-.29-45.52.15-63.73.17-7.15-1.79-11.15-8.64-14.52q-76.31-37.49-152.14-76c-5.59-2.83-9.85-2.87-15.47,0Q760.48,618.07,683.78,656c-5.8,2.87-8.06,6.17-8,12.75.35,32.58,0,65.17.19,97.75.57,103.08,64.8,198.67,160.06,237.69,4.79,2,11.85,2.12,16.54.09,73.18-31.67,122.31-85.62,147.89-161.15C1013.54,804.52,1013.9,764.68,1012.93,733.75Z" transform="translate(-3.16)"/><path d="M205.22,673.27c10.86,0,21.73-.19,32.59,0,19.71.43,34.53,15.18,34.27,33.79-.26,18.25-14.81,32.62-34.07,32.9-22.07.32-44.16.36-66.23,0-19.12-.31-33.69-15-33.74-33.24s14.38-32.87,33.53-33.41C182.78,673,194,673.28,205.22,673.27Z" transform="translate(-3.16)"/></svg>