<svg id="Слой_1" data-name="Слой 1" xmlns="http://www.w3.org/2000/svg" viewBox="0 0 1080 1080"><defs><style>.cls-1{fill:none;}</style></defs><path d="M0,759.38c1.8-8.2,3.17-16.51,5.47-24.57,20.08-70.53,66.2-113.9,137.28-131.07,1.7-.41,3.44-.66,5.16-1a11.72,11.72,0,0,0,1.93-1.29V589.75q0-136.56,0-273.14c0-18.64,3.68-23.78,21.21-30.35Q386,205.73,600.77,125.05a38.32,38.32,0,0,1,28.56,0q214.81,80.72,429.79,161c9.45,3.53,16.61,8.61,20.88,17.69V791c-7.38,5.38-14,12.94-22.25,15.82Q843.58,881.48,629.08,955.22a41.48,41.48,0,0,1-28.66-.16q-98.37-34.38-196.92-68.23c-23.09-8-46.22-15.84-68.84-23.58a20.37,20.37,0,0,0-1.57,1.64c-1.34,2.06-2.61,4.16-4,6.2-43.29,64.68-103.59,92.66-180.74,82.16C81.25,944.12,23.68,890.78,5.86,822.83c-2.21-8.43-3.92-17-5.86-25.49ZM1035.18,343c-4.4,1.27-7.39,1.92-10.22,3q-189.75,70.95-379.55,141.8c-7.13,2.65-8.24,6.65-8.23,13.31q.24,196.63.15,393.27c0,2.94.43,5.87.71,9.39,3.32-.88,5.7-1.35,8-2.14q189.5-65.42,379-130.66c8.23-2.82,10.31-6.6,10.3-14.88q-.4-200.32-.19-400.64Zm-839.91-.67V600.87c53.14,7,96.24,30.92,127.31,74.54,31.3,44,39.15,92.91,28,145.62l242,83.47v-7.19q0-198.79.21-397.6c0-7.74-3.36-10.1-9.55-12.41Q414.09,424.2,245.06,360.79C229,354.79,213,348.87,195.27,342.29ZM237,309.54c5.88,2.26,9.39,3.64,12.92,5q177.89,66.6,355.7,133.34a24.58,24.58,0,0,0,18.94,0Q791,385.22,957.56,323l34.93-13.09c-3.81-1.78-5.53-2.74-7.35-3.43Q803.81,238.6,622.37,171c-4.66-1.73-11.11-1.34-15.88.39-37.59,13.64-75,27.85-112.41,41.87Zm73.36,468.37A132.63,132.63,0,0,0,177.54,645.42c-72.84.05-132.82,60.14-132.67,132.91S105.19,911.1,178,911C250.94,910.86,310.41,851.07,310.33,777.91Z" transform="translate(0)"/><path d="M155,800.29c27.25-29.06,55.53-59.33,84-89.46,3.56-3.77,7.5-7.78,12.08-9.9,9.2-4.25,18.1-2.16,25,5.25s8.2,16.22,3.54,25.33c-1.72,3.36-4.43,6.32-7.05,9.13Q223.22,793.4,173.79,846c-14.23,15.13-25.92,15.26-40.21.6-17.66-18.12-35.47-36.09-52.8-54.51-12.46-13.25-8.43-32,7.65-37.77,9.77-3.49,17.69-.1,24.85,6.76C126.73,774,140.41,786.64,155,800.29Z" transform="translate(0)"/><rect class="cls-1" width="1080" height="1080"/></svg>